<?xml version="1.0" encoding="UTF-8"?>
<svg xmlns="http://www.w3.org/2000/svg" xmlns:xlink="http://www.w3.org/1999/xlink" width="75pt" height="59pt" viewBox="0 0 75 59" version="1.1">
<g id="surface1">
<path style=" stroke:none;fill-rule:nonzero;fill:rgb(0%,39.99939%,70.199585%);fill-opacity:1;" d="M 56.34375 14.988281 C 54.675781 14.988281 47.441406 10.792969 47.441406 10.792969 C 47.441406 10.792969 44.617188 9.273438 42.808594 9.273438 C 41 9.273438 40.554688 10.636719 40.203125 10.988281 C 39.898438 11.289063 39.339844 11.070313 39.191406 11.003906 C 39.355469 10.726563 39.453125 10.40625 39.453125 10.0625 C 39.453125 9.042969 38.640625 8.214844 37.628906 8.183594 L 37.519531 8.183594 C 36.507813 8.214844 35.695313 9.042969 35.695313 10.0625 C 35.695313 10.402344 35.789063 10.714844 35.945313 10.988281 L 35.9375 10.988281 C 35.9375 10.988281 35.238281 11.335938 34.886719 10.988281 C 34.535156 10.636719 34.089844 9.273438 32.28125 9.273438 C 30.472656 9.273438 27.652344 10.792969 27.652344 10.792969 C 27.652344 10.792969 20.414063 14.988281 18.75 14.988281 C 18.75 14.988281 17.878906 15.785156 19.542969 15.785156 C 19.542969 15.785156 20.050781 17.160156 21.535156 17.777344 C 21.535156 17.777344 21.570313 19.042969 23.742188 19.042969 C 23.742188 19.042969 24.175781 21.285156 26.492188 21.285156 C 26.492188 21.285156 27 23.3125 30.980469 23.3125 C 30.980469 23.3125 31.339844 25.773438 33.945313 26.28125 C 33.945313 26.28125 30.039063 28.8125 35.03125 32.71875 C 35.03125 32.71875 31.777344 34.890625 35.464844 37.496094 C 35.464844 37.496094 33.800781 39.378906 35.902344 41.476563 C 35.902344 41.476563 34.417969 43.175781 36.191406 44.949219 C 36.191406 44.949219 35.429688 46 36.695313 47.265625 C 36.695313 47.265625 36.550781 50.886719 37.347656 50.886719 L 37.742188 50.886719 C 38.539063 50.886719 38.394531 47.265625 38.394531 47.265625 C 39.660156 46 38.902344 44.949219 38.902344 44.949219 C 40.675781 43.175781 39.191406 41.476563 39.191406 41.476563 C 41.289063 39.378906 39.625 37.496094 39.625 37.496094 C 43.316406 34.890625 40.058594 32.71875 40.058594 32.71875 C 45.050781 28.8125 41.144531 26.28125 41.144531 26.28125 C 43.75 25.773438 44.109375 23.3125 44.109375 23.3125 C 48.09375 23.3125 48.597656 21.285156 48.597656 21.285156 C 50.914063 21.285156 51.347656 19.042969 51.347656 19.042969 C 53.519531 19.042969 53.554688 17.777344 53.554688 17.777344 C 55.039063 17.160156 55.546875 15.785156 55.546875 15.785156 C 57.210938 15.785156 56.34375 14.988281 56.34375 14.988281 "/>
<path style=" stroke:none;fill-rule:nonzero;fill:rgb(100%,100%,100%);fill-opacity:1;" d="M 39.019531 10.164063 C 39.019531 9.363281 38.371094 8.71875 37.570313 8.71875 C 36.773438 8.71875 36.125 9.363281 36.125 10.164063 C 36.125 10.964844 36.773438 11.613281 37.570313 11.613281 C 38.371094 11.613281 39.019531 10.964844 39.019531 10.164063 "/>
<path style=" stroke:none;fill-rule:nonzero;fill:rgb(100%,100%,100%);fill-opacity:1;" d="M 34.691406 13.308594 C 34.691406 13.308594 34.773438 10.035156 32.382813 10.035156 C 29.992188 10.035156 29.257813 10.769531 29.257813 10.769531 C 29.257813 10.769531 29.863281 11.921875 30.328125 11.921875 C 30.789063 11.921875 31.460938 11.042969 31.460938 11.042969 C 31.460938 11.042969 32.132813 10.75 32.339844 11.796875 C 32.550781 12.847656 32.886719 13.058594 33.472656 13.058594 C 34.0625 13.058594 34.273438 13.308594 34.691406 13.308594 "/>
<path style=" stroke:none;fill-rule:nonzero;fill:rgb(100%,100%,100%);fill-opacity:1;" d="M 36.914063 12.847656 C 36.914063 12.847656 36.957031 12.007813 36.410156 12.007813 C 35.867188 12.007813 35.574219 12.722656 35.574219 13.015625 C 35.574219 13.308594 36.117188 14.273438 36.539063 14.273438 C 36.957031 14.273438 36.9375 13.160156 36.914063 12.847656 "/>
<path style=" stroke:none;fill-rule:nonzero;fill:rgb(100%,100%,100%);fill-opacity:1;" d="M 35.65625 14.527344 C 35.65625 14.527344 37.019531 15.03125 37.019531 15.890625 C 37.019531 16.75 35.269531 15.105469 35.65625 14.527344 "/>
<path style=" stroke:none;fill-rule:nonzero;fill:rgb(100%,100%,100%);fill-opacity:1;" d="M 36.285156 17.128906 C 36.285156 17.128906 36.035156 16.601563 35.761719 16.601563 C 35.488281 16.601563 35.65625 17.003906 35.488281 17.167969 C 35.320313 17.339844 35.761719 17.652344 36.285156 17.128906 "/>
<path style=" stroke:none;fill-rule:nonzero;fill:rgb(100%,100%,100%);fill-opacity:1;" d="M 36.957031 18.933594 C 36.957031 18.933594 36.410156 18.554688 36.410156 18.386719 C 36.410156 18.21875 36.621094 18.34375 36.410156 18.554688 C 36.203125 18.765625 36.285156 19.605469 36.957031 18.933594 "/>
<path style=" stroke:none;fill-rule:nonzero;fill:rgb(100%,100%,100%);fill-opacity:1;" d="M 36.382813 20.90625 C 36.382813 20.90625 36.210938 22.128906 34.582031 22.128906 C 32.957031 22.128906 33.480469 21.605469 33.480469 21.605469 C 33.480469 21.605469 33.058594 20.84375 33.390625 20.804688 C 33.726563 20.769531 36.382813 20.582031 36.382813 20.90625 "/>
<path style=" stroke:none;fill-rule:nonzero;fill:rgb(100%,100%,100%);fill-opacity:1;" d="M 27.78125 11.402344 L 24.527344 13.21875 C 24.527344 13.21875 24.71875 14.414063 26.441406 13.648438 C 28.160156 12.882813 29.144531 11.902344 29.144531 11.902344 C 29.144531 11.902344 28.925781 10.898438 27.78125 11.402344 "/>
<path style=" stroke:none;fill-rule:nonzero;fill:rgb(100%,100%,100%);fill-opacity:1;" d="M 23.28125 13.9375 L 20.171875 15.421875 C 20.171875 15.421875 20.792969 17.144531 22.132813 16.519531 C 23.472656 15.898438 24.597656 14.773438 24.597656 14.773438 C 24.597656 14.773438 24.058594 13.566406 23.28125 13.9375 "/>
<path style=" stroke:none;fill-rule:nonzero;fill:rgb(100%,100%,100%);fill-opacity:1;" d="M 29.550781 12.742188 L 27.0625 14.511719 C 27.0625 14.511719 27.921875 15.421875 28.832031 14.941406 C 29.742188 14.464844 31.988281 12.308594 31.988281 12.308594 C 31.988281 12.308594 31.894531 11.496094 31.320313 12.070313 C 30.746094 12.644531 30.507813 12.882813 30.507813 12.882813 C 30.507813 12.882813 29.75 12.597656 29.550781 12.742188 "/>
<path style=" stroke:none;fill-rule:nonzero;fill:rgb(100%,100%,100%);fill-opacity:1;" d="M 25.722656 15.230469 L 22.371094 17.527344 C 22.371094 17.527344 23.523438 19.050781 24.667969 18.050781 C 25.90625 16.976563 27.679688 15.804688 27.679688 15.804688 C 27.679688 15.804688 26.390625 15.230469 25.722656 15.230469 "/>
<path style=" stroke:none;fill-rule:nonzero;fill:rgb(100%,100%,100%);fill-opacity:1;" d="M 28.402344 16.089844 L 24.429688 18.960938 C 24.429688 18.960938 25.960938 20.683594 26.824219 19.820313 C 27.683594 18.960938 29.4375 17.203125 29.4375 17.203125 C 29.4375 17.203125 29.359375 16.089844 28.402344 16.089844 "/>
<path style=" stroke:none;fill-rule:nonzero;fill:rgb(100%,100%,100%);fill-opacity:1;" d="M 30.554688 17.238281 L 27.085938 20.707031 C 27.085938 20.707031 28.136719 22.191406 29.117188 21.210938 C 30.097656 20.226563 31.605469 18.003906 31.605469 18.003906 C 31.605469 18.003906 30.914063 16.878906 30.554688 17.238281 "/>
<path style=" stroke:none;fill-rule:nonzero;fill:rgb(100%,100%,100%);fill-opacity:1;" d="M 33.558594 13.96875 L 31.175781 16.398438 C 31.175781 16.398438 31.890625 17.707031 32.570313 16.839844 C 33.246094 15.972656 34.21875 14.582031 34.21875 14.582031 C 34.21875 14.582031 34.066406 13.96875 33.558594 13.96875 "/>
<path style=" stroke:none;fill-rule:nonzero;fill:rgb(100%,100%,100%);fill-opacity:1;" d="M 32.914063 17.796875 L 29.457031 21.730469 C 29.457031 21.730469 30.546875 22.964844 31.417969 21.769531 C 32.292969 20.570313 33.757813 18.21875 33.757813 18.21875 C 33.757813 18.21875 33.734375 17.65625 32.914063 17.796875 "/>
<path style=" stroke:none;fill-rule:nonzero;fill:rgb(100%,100%,100%);fill-opacity:1;" d="M 34.863281 15.21875 L 33.578125 16.859375 C 33.578125 16.859375 34.238281 17.71875 34.757813 16.984375 C 35.273438 16.253906 35.257813 15.824219 35.257813 15.824219 C 35.257813 15.824219 35.273438 15.148438 34.863281 15.21875 "/>
<path style=" stroke:none;fill-rule:nonzero;fill:rgb(100%,100%,100%);fill-opacity:1;" d="M 35.078125 17.878906 L 33.652344 19.554688 C 33.652344 19.554688 34.757813 19.929688 34.988281 19.484375 C 35.222656 19.039063 35.632813 18.359375 35.632813 18.359375 C 35.632813 18.359375 35.523438 17.769531 35.078125 17.878906 "/>
<path style=" stroke:none;fill-rule:nonzero;fill:rgb(100%,100%,100%);fill-opacity:1;" d="M 31.597656 13.46875 L 29.351563 15.308594 C 29.351563 15.308594 30.097656 16.664063 30.921875 15.84375 C 31.742188 15.023438 32.738281 13.917969 32.738281 13.917969 C 32.738281 13.917969 32.3125 13.167969 31.597656 13.46875 "/>
<path style=" stroke:none;fill-rule:nonzero;fill:rgb(100%,100%,100%);fill-opacity:1;" d="M 40.464844 13.308594 C 40.464844 13.308594 40.382813 10.035156 42.773438 10.035156 C 45.167969 10.035156 45.902344 10.769531 45.902344 10.769531 C 45.902344 10.769531 45.292969 11.921875 44.832031 11.921875 C 44.371094 11.921875 43.699219 11.042969 43.699219 11.042969 C 43.699219 11.042969 43.027344 10.75 42.816406 11.796875 C 42.605469 12.847656 42.273438 13.058594 41.683594 13.058594 C 41.097656 13.058594 40.886719 13.308594 40.464844 13.308594 "/>
<path style=" stroke:none;fill-rule:nonzero;fill:rgb(100%,100%,100%);fill-opacity:1;" d="M 38.242188 12.847656 C 38.242188 12.847656 38.199219 12.007813 38.746094 12.007813 C 39.292969 12.007813 39.585938 12.722656 39.585938 13.015625 C 39.585938 13.308594 39.039063 14.273438 38.621094 14.273438 C 38.199219 14.273438 38.21875 13.160156 38.242188 12.847656 "/>
<path style=" stroke:none;fill-rule:nonzero;fill:rgb(100%,100%,100%);fill-opacity:1;" d="M 39.5 14.527344 C 39.5 14.527344 38.136719 15.03125 38.136719 15.890625 C 38.136719 16.75 39.890625 15.105469 39.5 14.527344 "/>
<path style=" stroke:none;fill-rule:nonzero;fill:rgb(100%,100%,100%);fill-opacity:1;" d="M 38.871094 17.128906 C 38.871094 17.128906 39.125 16.601563 39.398438 16.601563 C 39.667969 16.601563 39.5 17.003906 39.667969 17.167969 C 39.835938 17.339844 39.398438 17.652344 38.871094 17.128906 "/>
<path style=" stroke:none;fill-rule:nonzero;fill:rgb(100%,100%,100%);fill-opacity:1;" d="M 38.199219 18.933594 C 38.199219 18.933594 38.746094 18.554688 38.746094 18.386719 C 38.746094 18.21875 38.535156 18.34375 38.746094 18.554688 C 38.957031 18.765625 38.871094 19.605469 38.199219 18.933594 "/>
<path style=" stroke:none;fill-rule:nonzero;fill:rgb(100%,100%,100%);fill-opacity:1;" d="M 38.773438 20.90625 C 38.773438 20.90625 38.949219 22.128906 40.574219 22.128906 C 42.199219 22.128906 41.675781 21.605469 41.675781 21.605469 C 41.675781 21.605469 42.101563 20.84375 41.765625 20.804688 C 41.433594 20.769531 38.773438 20.582031 38.773438 20.90625 "/>
<path style=" stroke:none;fill-rule:nonzero;fill:rgb(100%,100%,100%);fill-opacity:1;" d="M 47.378906 11.402344 L 50.632813 13.21875 C 50.632813 13.21875 50.441406 14.414063 48.71875 13.648438 C 46.996094 12.882813 46.015625 11.902344 46.015625 11.902344 C 46.015625 11.902344 46.230469 10.898438 47.378906 11.402344 "/>
<path style=" stroke:none;fill-rule:nonzero;fill:rgb(100%,100%,100%);fill-opacity:1;" d="M 51.875 13.9375 L 54.984375 15.421875 C 54.984375 15.421875 54.363281 17.144531 53.023438 16.519531 C 51.683594 15.898438 50.558594 14.773438 50.558594 14.773438 C 50.558594 14.773438 51.101563 13.566406 51.875 13.9375 "/>
<path style=" stroke:none;fill-rule:nonzero;fill:rgb(100%,100%,100%);fill-opacity:1;" d="M 45.609375 12.742188 L 48.097656 14.511719 C 48.097656 14.511719 47.234375 15.421875 46.328125 14.941406 C 45.417969 14.464844 43.167969 12.308594 43.167969 12.308594 C 43.167969 12.308594 43.265625 11.496094 43.839844 12.070313 C 44.414063 12.644531 44.652344 12.882813 44.652344 12.882813 C 44.652344 12.882813 45.40625 12.597656 45.609375 12.742188 "/>
<path style=" stroke:none;fill-rule:nonzero;fill:rgb(100%,100%,100%);fill-opacity:1;" d="M 49.433594 15.230469 L 52.785156 17.527344 C 52.785156 17.527344 51.640625 19.046875 50.488281 18.050781 C 49.246094 16.976563 47.519531 15.902344 47.519531 15.902344 C 47.519531 15.902344 48.765625 15.230469 49.433594 15.230469 "/>
<path style=" stroke:none;fill-rule:nonzero;fill:rgb(100%,100%,100%);fill-opacity:1;" d="M 46.757813 16.089844 L 50.726563 18.960938 C 50.726563 18.960938 49.195313 20.683594 48.335938 19.820313 C 47.472656 18.960938 45.703125 17.332031 45.703125 17.332031 C 45.703125 17.332031 45.800781 16.089844 46.757813 16.089844 "/>
<path style=" stroke:none;fill-rule:nonzero;fill:rgb(100%,100%,100%);fill-opacity:1;" d="M 44.605469 17.238281 L 48.074219 20.707031 C 48.074219 20.707031 47.019531 22.191406 46.039063 21.210938 C 45.058594 20.226563 43.550781 18.003906 43.550781 18.003906 C 43.550781 18.003906 44.246094 16.878906 44.605469 17.238281 "/>
<path style=" stroke:none;fill-rule:nonzero;fill:rgb(100%,100%,100%);fill-opacity:1;" d="M 41.597656 13.96875 L 43.980469 16.398438 C 43.980469 16.398438 43.265625 17.707031 42.589844 16.839844 C 41.910156 15.972656 40.941406 14.582031 40.941406 14.582031 C 40.941406 14.582031 41.089844 13.96875 41.597656 13.96875 "/>
<path style=" stroke:none;fill-rule:nonzero;fill:rgb(100%,100%,100%);fill-opacity:1;" d="M 42.453125 17.679688 L 45.808594 21.625 C 45.808594 21.625 44.613281 22.964844 43.738281 21.769531 C 42.863281 20.570313 41.402344 18.21875 41.402344 18.21875 C 41.402344 18.21875 41.632813 17.539063 42.453125 17.679688 "/>
<path style=" stroke:none;fill-rule:nonzero;fill:rgb(100%,100%,100%);fill-opacity:1;" d="M 40.292969 15.21875 L 41.578125 16.859375 C 41.578125 16.859375 40.917969 17.71875 40.402344 16.984375 C 39.882813 16.253906 39.902344 15.824219 39.902344 15.824219 C 39.902344 15.824219 39.882813 15.148438 40.292969 15.21875 "/>
<path style=" stroke:none;fill-rule:nonzero;fill:rgb(100%,100%,100%);fill-opacity:1;" d="M 40.082031 17.878906 L 41.507813 19.554688 C 41.507813 19.554688 40.402344 19.929688 40.167969 19.484375 C 39.9375 19.039063 39.527344 18.359375 39.527344 18.359375 C 39.527344 18.359375 39.632813 17.769531 40.082031 17.878906 "/>
<path style=" stroke:none;fill-rule:nonzero;fill:rgb(100%,100%,100%);fill-opacity:1;" d="M 43.558594 13.46875 L 45.808594 15.308594 C 45.808594 15.308594 45.058594 16.664063 44.238281 15.84375 C 43.417969 15.023438 42.417969 13.917969 42.417969 13.917969 C 42.417969 13.917969 42.84375 13.167969 43.558594 13.46875 "/>
<path style=" stroke:none;fill-rule:nonzero;fill:rgb(100%,100%,100%);fill-opacity:1;" d="M 33.78125 21.109375 C 33.78125 21.109375 30.210938 21.765625 31.992188 24.503906 C 33.773438 27.242188 40.4375 25.960938 40.4375 29.1875 C 40.4375 30.539063 38.753906 31.726563 38.753906 31.726563 C 38.753906 31.726563 39.464844 32.238281 39.710938 32.484375 C 39.710938 32.484375 41.855469 30.933594 41.855469 29.253906 C 41.855469 27.570313 40.007813 26.613281 37.269531 25.921875 C 34.53125 25.230469 32.304688 24.484375 32.304688 23.003906 C 32.304688 21.519531 33.78125 21.109375 33.78125 21.109375 "/>
<path style=" stroke:none;fill-rule:nonzero;fill:rgb(100%,100%,100%);fill-opacity:1;" d="M 35.390625 33.078125 C 35.390625 33.078125 35.6875 33.308594 36.148438 33.476563 C 36.148438 33.476563 35.324219 33.707031 35.324219 34.960938 C 35.324219 36.214844 39.316406 37.402344 39.316406 39.179688 C 39.316406 40.46875 38.292969 41.363281 38.292969 41.363281 C 38.292969 41.363281 38.195313 40.929688 37.929688 40.929688 C 37.929688 40.929688 38.6875 40.007813 38.6875 39.378906 C 38.6875 38.753906 37.796875 37.828125 36.675781 37.269531 C 35.554688 36.707031 34.136719 35.785156 34.136719 34.597656 C 34.136719 33.410156 35.390625 33.078125 35.390625 33.078125 "/>
<path style=" stroke:none;fill-rule:nonzero;fill:rgb(100%,100%,100%);fill-opacity:1;" d="M 36.558594 42.085938 C 36.558594 42.085938 36.691406 42.332031 36.921875 42.5625 C 36.921875 42.5625 36.578125 42.777344 36.578125 43.304688 C 36.578125 43.832031 38.308594 45.183594 38.308594 45.566406 C 38.308594 45.945313 38.304688 46.125 38.171875 46.125 C 38.039063 46.125 38.195313 45.90625 37.964844 45.675781 C 37.734375 45.445313 35.980469 44.191406 35.980469 43.074219 C 35.980469 42.339844 36.558594 42.085938 36.558594 42.085938 "/>
<path style=" stroke:none;fill-rule:nonzero;fill:rgb(100%,100%,100%);fill-opacity:1;" d="M 41.425781 21.363281 C 41.425781 21.363281 42.992188 22.03125 42.78125 22.902344 C 42.574219 23.777344 41.3125 25.40625 39.21875 25.664063 C 39.21875 25.664063 40.039063 25.960938 40.300781 26.222656 C 40.300781 26.222656 43.550781 25.28125 43.550781 23.21875 C 43.550781 21.15625 41.425781 21.363281 41.425781 21.363281 "/>
<path style=" stroke:none;fill-rule:nonzero;fill:rgb(100%,100%,100%);fill-opacity:1;" d="M 34.816406 26.886719 C 34.816406 26.886719 35.574219 27.320313 35.820313 27.320313 C 35.820313 27.320313 34.46875 27.339844 34.46875 29.191406 C 34.46875 31.042969 40.71875 32.546875 40.71875 34.921875 C 40.71875 36.214844 38.960938 37.273438 38.960938 37.273438 C 38.960938 37.273438 38.660156 36.914063 38.378906 36.914063 C 38.378906 36.914063 39.289063 36.074219 39.289063 34.78125 C 39.289063 33.488281 36.144531 32.195313 36.144531 32.195313 C 36.144531 32.195313 32.878906 31.042969 32.878906 28.929688 C 32.878906 27.027344 34.816406 26.886719 34.816406 26.886719 "/>
<path style=" stroke:none;fill-rule:nonzero;fill:rgb(100%,100%,100%);fill-opacity:1;" d="M 36.308594 37.714844 C 36.308594 37.714844 36.457031 38.03125 36.667969 38.238281 C 36.667969 38.238281 36.144531 38.519531 36.144531 39.429688 C 36.144531 40.335938 38.796875 42.082031 38.796875 43.132813 C 38.796875 43.898438 38.136719 44.320313 38.136719 44.320313 C 38.136719 44.320313 37.964844 43.898438 37.890625 43.898438 C 37.890625 43.898438 38.171875 43.621094 38.171875 43.0625 C 38.171875 42.503906 37.296875 41.628906 36.894531 41.226563 C 36.492188 40.824219 35.523438 40.535156 35.339844 39.253906 C 35.339844 38.519531 36.308594 37.714844 36.308594 37.714844 "/>
<path style=" stroke:none;fill-rule:nonzero;fill:rgb(100%,100%,100%);fill-opacity:1;" d="M 36.773438 45.261719 L 37.085938 45.578125 C 37.085938 45.578125 36.683594 46.433594 36.457031 46.207031 C 36.230469 45.976563 36.773438 45.261719 36.773438 45.261719 "/>
</g>
</svg>
